<svg version="1.0" xmlns="http://www.w3.org/2000/svg"
 width="16" height="16" viewBox="0 0 16 16"
 preserveAspectRatio="xMidYMid meet">
<g transform="translate(0,16) scale(0.001067,-0.001067)" fill="#000000" stroke="none">
fill="#000000" stroke="none">
<path d="M9173 12957 l-42 -8 -1 -237 c0 -238 -4 -360 -14 -462 -3 -30 -10
-107 -16 -170 -6 -63 -13 -126 -16 -140 -2 -14 -7 -52 -10 -85 -4 -33 -8 -63
-10 -66 -2 -4 -6 -28 -9 -55 -8 -63 -15 -106 -20 -113 -2 -4 -11 -49 -20 -101
-9 -52 -29 -147 -46 -210 -16 -63 -32 -126 -35 -140 -9 -42 -20 -44 -79 -16
-30 14 -59 26 -63 26 -4 0 -18 6 -32 13 -14 7 -81 35 -150 61 -69 27 -138 55
-155 62 -16 7 -59 22 -95 34 -75 25 -110 45 -110 64 0 7 -9 21 -20 31 -11 10
-20 24 -20 32 0 7 -4 13 -10 13 -5 0 -10 4 -10 10 0 30 -211 280 -355 421
-169 165 -278 253 -460 372 -344 224 -553 305 -875 337 -113 11 -371 9 -440
-4 -19 -3 -58 -8 -86 -11 -28 -3 -62 -8 -75 -11 -13 -3 -39 -7 -58 -10 -19 -2
-52 -9 -75 -14 -22 -5 -54 -11 -71 -14 -16 -3 -79 -19 -140 -36 -60 -17 -120
-33 -133 -36 -18 -3 -175 -58 -262 -90 -8 -3 -16 -5 -17 -5 -2 1 -29 -11 -60
-25 -32 -14 -63 -27 -69 -28 -40 -7 -439 -211 -547 -279 -28 -18 -83 -50 -120
-71 -38 -21 -71 -44 -74 -52 -3 -8 -9 -14 -13 -14 -13 0 -197 -127 -245 -168
-11 -9 -27 -21 -36 -27 -16 -10 -85 -65 -118 -95 -9 -8 -41 -35 -71 -60 -132
-108 -354 -330 -483 -481 -12 -15 -44 -52 -72 -83 -27 -31 -53 -64 -58 -72 -5
-9 -17 -24 -26 -34 -24 -26 -50 -61 -69 -92 -9 -16 -20 -28 -24 -28 -4 0 -8
-5 -8 -11 0 -10 -13 -29 -60 -86 -6 -7 -10 -17 -10 -23 0 -5 -4 -10 -10 -10
-5 0 -12 -11 -16 -24 -3 -14 -12 -27 -20 -30 -8 -3 -14 -12 -14 -21 0 -8 -4
-15 -10 -15 -5 0 -10 -5 -10 -11 0 -6 -12 -29 -27 -52 -41 -63 -51 -79 -70
-117 -9 -19 -20 -37 -24 -40 -3 -3 -9 -15 -13 -27 -4 -13 -12 -23 -17 -23 -5
0 -9 -9 -9 -20 0 -11 -4 -20 -9 -20 -7 0 -22 -36 -20 -49 0 -2 -3 -7 -8 -10
-13 -10 -33 -49 -33 -66 0 -8 -3 -15 -8 -15 -4 0 -13 -15 -21 -32 -8 -18 -22
-51 -32 -72 -11 -22 -19 -46 -19 -53 0 -7 -4 -13 -10 -13 -5 0 -10 -9 -10 -19
0 -11 -5 -23 -10 -26 -6 -3 -10 -15 -10 -26 0 -10 -4 -19 -10 -19 -5 0 -10 -9
-10 -20 0 -11 -4 -28 -9 -38 -19 -34 -41 -90 -41 -101 0 -6 -4 -19 -10 -29
-13 -23 -70 -197 -70 -214 0 -7 -7 -25 -14 -40 -8 -16 -17 -40 -20 -55 -12
-73 -37 -175 -45 -190 -13 -24 -41 -155 -35 -164 2 -4 -5 -47 -16 -96 -12 -48
-23 -106 -25 -128 -2 -22 -8 -78 -15 -125 -39 -292 -46 -762 -15 -1080 11
-114 16 -169 20 -200 3 -19 7 -53 10 -75 3 -22 7 -51 10 -65 3 -14 8 -43 10
-65 3 -22 8 -53 12 -70 6 -32 10 -52 18 -100 5 -34 20 -108 30 -145 3 -14 8
-36 11 -50 11 -53 13 -66 18 -85 8 -28 26 -97 31 -118 7 -23 14 -54 19 -75 7
-30 27 -106 41 -152 22 -73 66 -214 70 -228 3 -7 5 -16 6 -20 1 -4 10 -28 20
-54 10 -27 16 -48 13 -48 -4 0 -2 -6 3 -12 6 -7 20 -44 33 -83 13 -38 27 -74
32 -80 4 -5 8 -14 8 -21 0 -6 8 -29 17 -50 9 -22 16 -42 15 -46 -1 -3 5 -12
13 -18 8 -7 15 -19 15 -27 0 -18 162 -344 191 -385 11 -15 18 -28 15 -28 -3 0
36 -64 86 -142 51 -79 102 -159 114 -178 13 -19 29 -42 36 -50 7 -8 24 -31 38
-50 67 -97 191 -243 332 -394 26 -28 56 -60 66 -71 10 -11 33 -31 51 -45 18
-14 47 -38 65 -55 17 -16 48 -42 68 -57 20 -15 42 -34 50 -41 7 -7 47 -38 88
-70 41 -31 80 -62 87 -67 7 -6 16 -10 21 -10 5 0 17 -9 27 -20 10 -11 24 -20
31 -20 7 0 14 -4 16 -8 4 -11 152 -102 166 -102 7 0 12 -4 12 -10 0 -5 5 -10
10 -10 6 0 28 -11 50 -25 22 -14 46 -25 55 -25 8 0 15 -4 15 -10 0 -5 9 -10
19 -10 11 0 21 -4 23 -8 4 -11 92 -51 223 -102 181 -71 247 -91 385 -120 136
-28 142 -30 169 -64 74 -93 339 -326 370 -326 5 0 11 -4 13 -8 3 -8 154 -102
164 -102 2 0 23 -12 47 -27 23 -14 48 -26 54 -26 7 0 13 -3 13 -6 0 -3 15 -12
33 -19 17 -7 40 -18 49 -23 10 -5 25 -9 33 -9 8 0 15 -4 15 -10 0 -5 8 -10 18
-10 10 0 22 -4 27 -9 6 -4 46 -21 90 -36 44 -15 88 -32 98 -37 10 -5 31 -12
45 -14 15 -3 31 -9 37 -13 5 -5 35 -14 65 -21 30 -7 60 -16 65 -20 6 -4 48
-15 95 -25 47 -9 91 -22 98 -27 6 -6 12 -7 12 -4 0 4 8 2 18 -3 9 -5 31 -11
47 -14 17 -3 55 -11 85 -17 30 -7 75 -14 100 -17 25 -2 70 -11 101 -19 31 -7
85 -16 120 -20 35 -3 66 -7 69 -9 9 -6 179 -26 335 -40 33 -3 94 -9 135 -12
102 -9 503 -9 620 0 156 13 310 30 365 41 11 2 40 7 65 11 25 4 70 13 100 21
31 7 73 16 95 20 22 3 43 8 47 11 5 2 16 6 25 8 10 1 47 11 83 20 66 17 87 22
128 31 13 2 44 12 69 20 25 9 53 17 62 20 78 18 101 25 132 38 20 8 47 17 60
20 21 4 150 48 189 63 8 4 17 7 20 7 10 3 106 39 135 51 17 7 62 25 100 40 39
16 103 43 143 61 41 19 76 34 79 34 12 0 348 173 354 182 3 5 8 8 10 6 4 -3
195 106 249 143 14 9 59 38 100 65 67 43 230 160 277 198 10 8 68 55 128 104
97 79 438 402 424 402 -3 0 15 22 40 48 25 26 57 63 71 81 14 19 32 41 41 50
31 32 149 189 149 199 0 6 6 15 13 19 11 7 87 114 122 171 6 10 22 36 38 60
15 24 27 45 27 47 0 3 17 33 38 67 37 61 212 409 212 422 0 3 9 25 19 49 26
58 54 135 51 143 -1 4 2 10 7 13 7 5 78 205 89 251 2 8 10 40 19 70 19 64 24
86 31 119 3 14 7 28 9 31 5 8 44 185 50 227 2 15 7 39 10 53 7 33 12 64 21
125 3 28 8 57 9 65 5 27 15 114 20 165 16 166 19 255 19 475 0 256 -8 406 -29
555 -3 22 -8 60 -10 85 -2 25 -7 56 -10 70 -4 14 -7 32 -7 40 0 14 -32 190
-42 235 -24 109 -68 282 -101 395 -16 55 -79 232 -114 320 -53 132 -210 450
-223 450 -5 0 -6 5 -3 10 3 6 3 10 -2 10 -4 0 -17 18 -27 40 -11 22 -23 40
-28 40 -4 0 -8 5 -8 11 0 6 -8 21 -17 34 -10 12 -25 33 -33 46 -83 126 -372
429 -410 429 -5 0 -10 5 -10 10 0 6 -7 10 -15 10 -8 0 -15 5 -15 10 0 6 -7 10
-15 10 -8 0 -15 4 -15 9 0 5 -10 13 -22 17 -13 4 -25 9 -28 13 -12 14 -278
150 -283 145 -2 -3 -10 2 -17 11 -7 8 -18 15 -25 15 -13 0 -115 42 -147 60
-10 6 -26 10 -36 10 -10 0 -22 4 -28 10 -5 5 -18 11 -29 13 -11 2 -27 7 -35
10 -42 18 -100 35 -100 30 0 -3 -6 -1 -12 4 -7 6 -35 16 -63 22 -27 7 -57 14
-65 17 -140 34 -175 42 -234 49 -15 3 -35 7 -45 9 -9 3 -41 8 -71 11 -30 3
-71 8 -91 10 -20 3 -64 7 -97 10 -73 6 -85 11 -185 75 -43 27 -81 50 -83 50
-2 0 -34 18 -70 40 -36 22 -67 40 -69 40 -1 0 -40 21 -86 48 -46 26 -102 56
-124 67 -22 11 -42 22 -45 25 -9 9 -55 33 -230 123 -96 48 -178 92 -182 95 -6
6 65 212 102 297 10 22 111 321 115 339 1 6 4 18 8 26 22 60 106 386 111 430
1 9 6 21 10 28 4 7 6 16 3 19 -3 3 -2 15 2 27 5 12 12 44 15 71 4 28 9 57 11
65 18 69 30 224 30 403 0 194 5 184 -103 217 -104 32 -229 43 -309 27z"/>
</g>
</svg>
