<svg version="1.0" xmlns="http://www.w3.org/2000/svg"
 width="512.000000pt" height="512.000000pt" viewBox="0 0 512.000000 512.000000"
 preserveAspectRatio="xMidYMid meet">
<metadata>Created by potrace 1.14, written by Peter Selinger 2001-2017</metadata>
<g transform="translate(0.000000,512.000000) scale(0.100000,-0.100000)"
fill="#000000" stroke="none">
<path d="M3130 4420 c-9 -5 -13 -46 -15 -132 -2 -68 -6 -152 -10 -186 -7 -68
-51 -291 -58 -298 -2 -3 -44 11 -93 30 -49 19 -97 37 -106 40 -9 2 -36 31 -59
63 -123 167 -325 319 -479 358 -223 58 -554 -26 -839 -212 -145 -94 -244 -182
-373 -331 -115 -132 -268 -434 -295 -581 -2 -14 -6 -28 -9 -32 -2 -4 -9 -31
-14 -60 -35 -184 -35 -528 0 -669 5 -19 11 -48 13 -65 8 -49 44 -178 77 -277
63 -183 188 -397 307 -524 146 -155 374 -292 532 -319 32 -5 55 -19 90 -52
116 -113 316 -208 523 -248 60 -12 85 -17 113 -20 17 -2 57 -7 90 -12 114 -14
437 -5 467 13 5 3 18 7 31 10 12 2 33 6 47 9 14 4 36 8 49 11 13 3 32 9 43 15
10 5 18 7 18 5 0 -4 61 17 225 77 99 36 279 139 390 223 133 100 244 218 337
358 219 331 293 746 208 1160 -52 255 -169 483 -305 595 -113 93 -317 170
-519 196 -43 5 -96 26 -96 37 0 5 -5 8 -10 8 -6 0 -27 11 -48 23 -27 18 -160
88 -229 122 -2 1 15 52 37 114 63 177 98 325 101 431 3 90 0 100 -27 110 -36
14 -99 19 -114 10z"/>
</g>
</svg>
